# xmcd CD database file
#
# Track frame offsets:
#	150
#	27736
#	53831
#	86029
#	126399
#	140814
#	163019
#	180829
#	205548
#	241215
#	258367
#	276617
#	295478
#
# Disc length: 4219 seconds
#
# Revision: 0
# Processed by: cddbd v1.5.2PL0 Copyright (c) Steve Scherf et al.
# Submitted via: CDex 1.51
#
DISCID=c910790d
DTITLE=Tubby Hayes - Seven Classic Albums CD 1 (The Jazz Couriers - In Concert and The Couriers of Jazz)
DYEAR=1900
DGENRE=Jazz
TTITLE0=What is this Thing Called Loved
TTITLE1=Some of my Best Friends are Blues
TTITLE2=The Serpent
TTITLE3=Guys and Dolls
TTITLE4=Time Was
TTITLE5=Speak Low
TTITLE6=Cheek to Cheek
TTITLE7=Mirage
TTITLE8=After Tea
TTITLE9=Stop the World, I Want to Get Off!
TTITLE10=In Salah
TTITLE11=Star Eyes
TTITLE12=The Monk
EXTD=
EXTT0=
EXTT1=
EXTT2=
EXTT3=
EXTT4=
EXTT5=
EXTT6=
EXTT7=
EXTT8=
EXTT9=
EXTT10=
EXTT11=
EXTT12=
PLAYORDER=
